<?xml version="1.0" encoding="UTF-8"?>
<!DOCTYPE svg PUBLIC "-//W3C//DTD SVG 1.1//EN" "http://www.w3.org/Graphics/SVG/1.1/DTD/svg11.dtd">
<svg version="1.1" id="Layer_1" xmlns="http://www.w3.org/2000/svg" xmlns:xlink="http://www.w3.org/1999/xlink" x="0px" y="0px" width="100px" height="100px" viewBox="0 0 500 500" enable-background="new 0 0 500 500" xml:space="preserve">
<g>
	<path d="M249.5,15C120,15,15,120,15,249.5s105,234.5,234.5,234.5c129.5,0,234.5-105,234.5-234.5S379.1,15,249.5,15z M249.5,445.6   c-108.1,0-196-87.9-196-196s87.9-196,196-196c108.1,0,196,87.9,196,196S357.6,445.6,249.5,445.6z"/>
	<path d="M394.5,203.7c0-0.2-0.1-0.4-0.1-0.5c-0.1-0.4-0.1-0.7-0.2-1c-0.1-0.2-0.1-0.4-0.2-0.6c-0.1-0.3-0.2-0.6-0.3-0.9   c-0.1-0.2-0.2-0.4-0.3-0.6c-0.1-0.3-0.3-0.6-0.4-0.8c-0.1-0.2-0.2-0.4-0.4-0.6c-0.2-0.3-0.3-0.5-0.5-0.8c-0.1-0.2-0.3-0.4-0.4-0.5   c-0.2-0.2-0.4-0.5-0.6-0.7c-0.2-0.2-0.3-0.3-0.5-0.5c-0.2-0.2-0.5-0.4-0.7-0.6c-0.2-0.1-0.4-0.3-0.6-0.4c-0.1,0-0.1-0.1-0.2-0.2   l-132.6-88.4c-4.2-2.8-9.6-2.8-13.8,0L110.1,195c-0.1,0-0.1,0.1-0.2,0.2c-0.2,0.1-0.4,0.3-0.6,0.4c-0.2,0.2-0.5,0.4-0.7,0.6   c-0.2,0.2-0.3,0.3-0.5,0.5c-0.2,0.2-0.4,0.4-0.6,0.7c-0.1,0.2-0.3,0.4-0.4,0.5c-0.2,0.2-0.4,0.5-0.5,0.8c-0.1,0.2-0.2,0.4-0.4,0.6   c-0.2,0.3-0.3,0.5-0.4,0.8c-0.1,0.2-0.2,0.4-0.3,0.6c-0.1,0.3-0.2,0.6-0.3,0.9c-0.1,0.2-0.1,0.4-0.2,0.6c-0.1,0.3-0.2,0.7-0.2,1   c0,0.2-0.1,0.4-0.1,0.5c-0.1,0.5-0.1,1.1-0.1,1.6v88.4c0,0.5,0,1.1,0.1,1.6c0,0.2,0.1,0.4,0.1,0.5c0.1,0.4,0.1,0.7,0.2,1   c0.1,0.2,0.1,0.4,0.2,0.6c0.1,0.3,0.2,0.6,0.3,0.9c0.1,0.2,0.2,0.4,0.3,0.6c0.1,0.3,0.3,0.6,0.4,0.8c0.1,0.2,0.2,0.4,0.4,0.6   c0.2,0.3,0.3,0.5,0.5,0.8c0.1,0.2,0.3,0.4,0.4,0.5c0.2,0.2,0.4,0.5,0.6,0.7c0.2,0.2,0.3,0.3,0.5,0.5c0.2,0.2,0.5,0.4,0.7,0.6   c0.2,0.1,0.4,0.3,0.6,0.4c0.1,0,0.1,0.1,0.2,0.2l132.6,88.4c2.1,1.4,4.5,2.1,6.9,2.1c2.4,0,4.8-0.7,6.9-2.1L389,304.1   c0.1,0,0.1-0.1,0.2-0.2c0.2-0.1,0.4-0.3,0.6-0.4c0.2-0.2,0.5-0.4,0.7-0.6c0.2-0.2,0.3-0.3,0.5-0.5c0.2-0.2,0.4-0.4,0.6-0.7   c0.1-0.2,0.3-0.4,0.4-0.5c0.2-0.2,0.4-0.5,0.5-0.8c0.1-0.2,0.2-0.4,0.4-0.6c0.2-0.3,0.3-0.5,0.4-0.8c0.1-0.2,0.2-0.4,0.3-0.6   c0.1-0.3,0.2-0.6,0.3-0.9c0.1-0.2,0.1-0.4,0.2-0.6c0.1-0.3,0.2-0.7,0.2-1c0-0.2,0.1-0.4,0.1-0.5c0.1-0.5,0.1-1.1,0.1-1.6v-88.4   C394.6,204.8,394.5,204.3,394.5,203.7z M262,140.3l97.7,65.1L316,234.6l-54-36.1V140.3z M237.1,140.3v58.1l-54,36.1l-43.6-29.2   L237.1,140.3z M129.5,228.7l31.2,20.9l-31.2,20.9V228.7z M237.1,358.8l-97.7-65.1l43.6-29.2l54,36.1V358.8z M249.5,279l-44.1-29.5   l44.1-29.5l44.1,29.5L249.5,279z M262,358.8v-58.1l54-36.1l43.6,29.2L262,358.8z M369.6,270.4l-31.2-20.9l31.2-20.9V270.4z"/>
</g>
</svg>