<?xml version="1.0" encoding="UTF-8"?>
<!DOCTYPE svg PUBLIC "-//W3C//DTD SVG 1.1//EN" "http://www.w3.org/Graphics/SVG/1.1/DTD/svg11.dtd">
<svg version="1.1" id="Layer_1" xmlns="http://www.w3.org/2000/svg" xmlns:xlink="http://www.w3.org/1999/xlink" x="0px" y="0px" width="100px" height="100px" viewBox="-249 151 100 100" enable-background="new -249 151 100 100" xml:space="preserve">
<g>
	<path fill="#82B541" d="M-173.7,159.7c-2.4-1.3-9.2-0.5-17.4,2c-14.4,9.8-26.5,24.3-27.4,47.6c-0.2,0.6-1.6-0.1-1.9-0.2   c-3.9-7.4-5.4-15.3-2.2-26.6c0.6-1-1.4-2.2-1.7-1.9c-0.7,0.7-3.7,3.9-5.7,7.3c-9.8,16.9-3.4,38.7,13.7,48.2   c17.1,9.5,38.7,3.4,48.2-13.7C-157,202.6-167.2,163.3-173.7,159.7z"/>
</g>
</svg>